<svg width="24" height="24" viewBox="0 0 24 24" fill="none" xmlns="http://www.w3.org/2000/svg">
<path fill-rule="evenodd" clip-rule="evenodd" d="M12 22C17.5228 22 22 17.5228 22 12C22 6.47715 17.5228 2 12 2C6.47715 2 2 6.47715 2 12C2 17.5228 6.47715 22 12 22ZM12 13.0049C12.2652 13.0049 12.5196 12.8995 12.7071 12.712C12.8946 12.5245 13 12.2701 13 12.0049L13 8.00488C13 7.73967 12.8946 7.48531 12.7071 7.29778C12.5196 7.11024 12.2652 7.00488 12 7.00488C11.7348 7.00488 11.4804 7.11024 11.2929 7.29778C11.1054 7.48531 11 7.73967 11 8.00488L11 12.0049C11 12.2701 11.1054 12.5245 11.2929 12.712C11.4804 12.8995 11.7348 13.0049 12 13.0049ZM11.29 16.7149C11.3851 16.8059 11.4972 16.8773 11.62 16.9249C11.8635 17.0249 12.1365 17.0249 12.38 16.9249C12.5028 16.8773 12.6149 16.8059 12.71 16.7149C12.7983 16.6177 12.8694 16.5061 12.92 16.3849C12.976 16.2662 13.0034 16.1361 13 16.0049C13.0008 15.8733 12.9755 15.7428 12.9258 15.621C12.876 15.4991 12.8027 15.3883 12.71 15.2949C12.6128 15.2066 12.5012 15.1355 12.38 15.0849C12.2285 15.0226 12.064 14.9986 11.9011 15.0148C11.7381 15.031 11.5816 15.087 11.4453 15.1778C11.309 15.2687 11.1971 15.3916 11.1195 15.5358C11.0418 15.68 11.0008 15.8411 11 16.0049C11.0037 16.2696 11.1073 16.5232 11.29 16.7149Z" fill="#003C71"/>
</svg>
