<svg width="32" height="32" viewBox="0 0 32 32" fill="none" xmlns="http://www.w3.org/2000/svg">
<path fill-rule="evenodd" clip-rule="evenodd" d="M27.9997 21.9995V25.5993C27.9997 27.6392 26.4398 29.1991 24.3999 29.1991H7.60078C5.56089 29.1991 4.00098 27.6392 4.00098 25.5993V21.9995C4.00098 21.2795 4.48095 20.7996 5.20091 20.7996C5.92087 20.7996 6.40085 21.2795 6.40085 21.9995V25.5993C6.40085 26.3193 6.88082 26.7992 7.60078 26.7992H24.3999C25.1198 26.7992 25.5998 26.3193 25.5998 25.5993V21.9995C25.5998 21.2795 26.0798 20.7996 26.7997 20.7996C27.5197 20.7996 27.9997 21.2795 27.9997 21.9995ZM15.1605 21.6395C15.2805 21.7595 15.4005 21.8795 15.5205 21.8795C15.6405 21.9995 15.8805 21.9995 16.0005 21.9995C16.1205 21.9995 16.3605 21.9995 16.4805 21.8795C16.6004 21.7595 16.7204 21.7595 16.8404 21.6395L21.6402 16.8398C22.1201 16.3598 22.1201 15.6398 21.6402 15.1599C21.1602 14.6799 20.4402 14.6799 19.9603 15.1599L17.2004 17.9197V4.00047C17.2004 3.28051 16.7204 2.80054 16.0005 2.80054C15.2805 2.80054 14.8005 3.28051 14.8005 4.00047V17.9197L12.0407 15.1599C11.5607 14.6799 10.8408 14.6799 10.3608 15.1599C9.88081 15.6398 9.88081 16.3598 10.3608 16.8398L15.1605 21.6395Z" fill="#252323"/>
</svg>
