<svg width="48" height="48" viewBox="0 0 48 48" fill="none" xmlns="http://www.w3.org/2000/svg">
<path fill-rule="evenodd" clip-rule="evenodd" d="M23.3758 4.11577C23.7782 3.96141 24.2218 3.96141 24.6242 4.11577L38.8464 9.57035C39.5403 9.83647 40 10.5149 40 11.2728V24.0001C40 30.2664 35.9436 35.2735 32.2818 38.5504C30.4135 40.2223 28.5537 41.5291 27.1644 42.4171C26.468 42.8623 25.885 43.2052 25.4721 43.439C25.2656 43.556 25.1012 43.6458 24.9861 43.7076C24.9285 43.7385 24.8832 43.7624 24.8511 43.7792L24.8129 43.7991L24.8014 43.8051L24.7976 43.807C24.797 43.8073 24.795 43.8083 24 42.1821C23.205 43.8083 23.2044 43.8081 23.2039 43.8078L23.1986 43.8051L23.1871 43.7991L23.1489 43.7792C23.1168 43.7624 23.0715 43.7385 23.0139 43.7076C22.8988 43.6458 22.7344 43.556 22.5279 43.439C22.115 43.2052 21.532 42.8623 20.8356 42.4171C19.4463 41.5291 17.5865 40.2223 15.7182 38.5504C12.0564 35.2735 8 30.2664 8 24.0001V11.2728C8 10.5149 8.45968 9.83647 9.15356 9.57035L23.3758 4.11577ZM24 42.1821L23.2039 43.8078C23.7044 44.0637 24.2946 44.0643 24.795 43.8083L24 42.1821ZM24 40.1144C24.3407 39.9169 24.7764 39.6554 25.28 39.3334C26.5574 38.5169 28.2531 37.3237 29.9404 35.8137C33.3898 32.7269 36.4444 28.643 36.4444 24.0001V12.5328L24 7.76003L11.5556 12.5328V24.0001C11.5556 28.643 14.6102 32.7269 18.0596 35.8137C19.7469 37.3237 21.4426 38.5169 22.72 39.3334C23.2236 39.6554 23.6593 39.9169 24 40.1144Z" fill="#252323"/>
</svg>
